<svg xmlns="http://www.w3.org/2000/svg" viewBox="0 0 512 512">
  <defs>
    <linearGradient id="grad1" x1="0%" y1="0%" x2="100%" y2="100%">
      <stop offset="0%" style="stop-color:#4a90e2;stop-opacity:1" />
      <stop offset="100%" style="stop-color:#0056b3;stop-opacity:1" />
    </linearGradient>
  </defs>
  <rect width="512" height="512" rx="128" fill="url(#grad1)"/>
  <rect x="100" y="100" width="312" height="350" rx="20" fill="#ffffff"/>
  <path d="M100 120 a20,20 0 0 1 20,-20 h272 a20,20 0 0 1 20,20 v50 h-312 z" fill="#2c3e50"/>
  
  <!-- Ring binder holes -->
  <circle cx="160" cy="80" r="15" fill="#95a5a6"/>
  <circle cx="352" cy="80" r="15" fill="#95a5a6"/>
  
  <!-- Ring binder metal -->
  <rect x="150" y="60" width="20" height="60" rx="10" fill="#7f8c8d"/>
  <rect x="342" y="60" width="20" height="60" rx="10" fill="#7f8c8d"/>
  
  <!-- Lines -->
  <rect x="140" y="200" width="232" height="20" rx="5" fill="#e0e0e0"/>
  <rect x="140" y="260" width="232" height="20" rx="5" fill="#e0e0e0"/>
  <rect x="140" y="320" width="232" height="20" rx="5" fill="#e0e0e0"/>
  <rect x="140" y="380" width="150" height="20" rx="5" fill="#e0e0e0"/>
  
  <!-- Checkmark -->
  <circle cx="380" cy="380" r="50" fill="#27ae60"/>
  <path d="M355 380 l15 15 l35 -35" stroke="white" stroke-width="8" fill="none" stroke-linecap="round" stroke-linejoin="round"/>
</svg>